<?xml version="1.0" encoding="UTF-8" standalone="no"?><svg xmlns="http://www.w3.org/2000/svg" xmlns:xlink="http://www.w3.org/1999/xlink" clip-rule="evenodd" stroke-miterlimit="4.00" viewBox="0 0 1024 768"><desc>SVG generated by Keynote</desc><defs></defs><g transform="matrix(1.00, 0.00, -0.00, -1.00, 0.0, 768.0)"><path d="M 0.0 768.0 L 1024.0 768.0 L 1024.0 0.0 L 0.0 0.0 Z M 0.0 768.0 " fill="#212121"></path><text xml:space="preserve" font-family="AvenirNext-DemiBold" font-weight="bold" font-size="101.1" fill="#34A4DA" transform="matrix(1.00, 0.00, -0.00, -1.00, 28.0, 654.0)">M</text><text xml:space="preserve" font-family="AvenirNext-DemiBold" font-weight="bold" font-size="101.1" fill="#34A4DA" transform="matrix(1.00, 0.00, -0.00, -1.00, 121.0, 654.0)">R</text><image xlink:href="../../0E9C7C96-B8BA-45B4-B873-08FCD0F4E082/assets/559DC88920DB41E3426B5AD65DFB64F9.jpeg" width="525.00" height="241.00" transform="matrix(1.00, 0.00, -0.00, -1.00, 346.0, 723.0)"></image><text xml:space="preserve" font-family="LucidaGrande" font-size="25.2" fill="#34A4DA" transform="matrix(1.00, 0.00, -0.00, -1.00, 83.0, 578.3)">‣</text><text xml:space="preserve" font-family="AvenirNext-Medium" font-size="24.0" fill="#34A4DA" transform="matrix(1.00, 0.00, -0.00, -1.00, 108.0, 575.0)">H</text><text xml:space="preserve" font-family="AvenirNext-Medium" font-size="24.0" fill="#34A4DA" transform="matrix(1.00, 0.00, -0.00, -1.00, 125.5, 575.0)">o</text><text xml:space="preserve" font-family="AvenirNext-Medium" font-size="24.0" fill="#34A4DA" transform="matrix(1.00, 0.00, -0.00, -1.00, 140.1, 575.0)">l</text><text xml:space="preserve" font-family="AvenirNext-Medium" font-size="24.0" fill="#34A4DA" transform="matrix(1.00, 0.00, -0.00, -1.00, 146.4, 575.0)">o</text><text xml:space="preserve" font-family="AvenirNext-Medium" font-size="24.0" fill="#34A4DA" transform="matrix(1.00, 0.00, -0.00, -1.00, 161.0, 575.0)">l</text><text xml:space="preserve" font-family="AvenirNext-Medium" font-size="24.0" fill="#34A4DA" transform="matrix(1.00, 0.00, -0.00, -1.00, 167.3, 575.0)">e</text><text xml:space="preserve" font-family="AvenirNext-Medium" font-size="24.0" fill="#34A4DA" transform="matrix(1.00, 0.00, -0.00, -1.00, 181.0, 575.0)">n</text><text xml:space="preserve" font-family="AvenirNext-Medium" font-size="24.0" fill="#34A4DA" transform="matrix(1.00, 0.00, -0.00, -1.00, 195.0, 575.0)">s</text><text xml:space="preserve" font-family="AvenirNext-Medium" font-size="24.0" fill="#34A4DA" transform="matrix(1.00, 0.00, -0.00, -1.00, 205.6, 575.0)"> </text><text xml:space="preserve" font-family="LucidaGrande" font-size="25.2" fill="#34A4DA" transform="matrix(1.00, 0.00, -0.00, -1.00, 83.0, 517.3)">‣</text><text xml:space="preserve" font-family="AvenirNext-Medium" font-size="24.0" fill="#34A4DA" transform="matrix(1.00, 0.00, -0.00, -1.00, 108.0, 514.0)">M</text><text xml:space="preserve" font-family="AvenirNext-Medium" font-size="24.0" fill="#34A4DA" transform="matrix(1.00, 0.00, -0.00, -1.00, 129.7, 514.0)">a</text><text xml:space="preserve" font-family="AvenirNext-Medium" font-size="24.0" fill="#34A4DA" transform="matrix(1.00, 0.00, -0.00, -1.00, 142.7, 514.0)">g</text><text xml:space="preserve" font-family="AvenirNext-Medium" font-size="24.0" fill="#34A4DA" transform="matrix(1.00, 0.00, -0.00, -1.00, 157.8, 514.0)">i</text><text xml:space="preserve" font-family="AvenirNext-Medium" font-size="24.0" fill="#34A4DA" transform="matrix(1.00, 0.00, -0.00, -1.00, 164.1, 514.0)">c</text><text xml:space="preserve" font-family="AvenirNext-Medium" font-size="24.0" fill="#34A4DA" transform="matrix(1.00, 0.00, -0.00, -1.00, 175.9, 514.0)"> </text><text xml:space="preserve" font-family="AvenirNext-Medium" font-size="24.0" fill="#34A4DA" transform="matrix(1.00, 0.00, -0.00, -1.00, 181.9, 514.0)">L</text><text xml:space="preserve" font-family="AvenirNext-Medium" font-size="24.0" fill="#34A4DA" transform="matrix(1.00, 0.00, -0.00, -1.00, 193.8, 514.0)">e</text><text xml:space="preserve" font-family="AvenirNext-Medium" font-size="24.0" fill="#34A4DA" transform="matrix(1.00, 0.00, -0.00, -1.00, 207.4, 514.0)">a</text><text xml:space="preserve" font-family="AvenirNext-Medium" font-size="24.0" fill="#34A4DA" transform="matrix(1.00, 0.00, -0.00, -1.00, 220.4, 514.0)">p</text><image xlink:href="../../0E9C7C96-B8BA-45B4-B873-08FCD0F4E082/assets/99A6A628739A27A24BEAA7B5C131853D.jpeg" width="438.00" height="246.00" transform="matrix(1.00, 0.00, -0.00, -1.00, 539.0, 538.0)"></image><image xlink:href="../../0E9C7C96-B8BA-45B4-B873-08FCD0F4E082/assets/4B33E2075FEAB5FFF35E121410C272FC.jpeg" width="514.00" height="297.00" transform="matrix(1.00, 0.00, -0.00, -1.00, 335.0, 328.0)"></image><text xml:space="preserve" font-family="AvenirNext-Medium" font-size="24.0" fill="#34A4DA" transform="matrix(1.00, 0.00, -0.00, -1.00, 109.0, 397.0)">T</text><text xml:space="preserve" font-family="AvenirNext-Medium" font-size="24.0" fill="#34A4DA" transform="matrix(1.00, 0.00, -0.00, -1.00, 122.2, 397.0)">h</text><text xml:space="preserve" font-family="AvenirNext-Medium" font-size="24.0" fill="#34A4DA" transform="matrix(1.00, 0.00, -0.00, -1.00, 136.2, 397.0)">e</text><text xml:space="preserve" font-family="AvenirNext-Medium" font-size="24.0" fill="#34A4DA" transform="matrix(1.00, 0.00, -0.00, -1.00, 150.0, 397.0)"> </text><text xml:space="preserve" font-family="AvenirNext-Medium" font-size="24.0" fill="#34A4DA" transform="matrix(1.00, 0.00, -0.00, -1.00, 155.7, 397.0)">W</text><text xml:space="preserve" font-family="AvenirNext-Medium" font-size="24.0" fill="#34A4DA" transform="matrix(1.00, 0.00, -0.00, -1.00, 178.6, 397.0)">o</text><text xml:space="preserve" font-family="AvenirNext-Medium" font-size="24.0" fill="#34A4DA" transform="matrix(1.00, 0.00, -0.00, -1.00, 193.2, 397.0)">r</text><text xml:space="preserve" font-family="AvenirNext-Medium" font-size="24.0" fill="#34A4DA" transform="matrix(1.00, 0.00, -0.00, -1.00, 201.9, 397.0)">l</text><text xml:space="preserve" font-family="AvenirNext-Medium" font-size="24.0" fill="#34A4DA" transform="matrix(1.00, 0.00, -0.00, -1.00, 208.1, 397.0)">d</text><text xml:space="preserve" font-family="AvenirNext-Medium" font-size="24.0" fill="#34A4DA" transform="matrix(1.00, 0.00, -0.00, -1.00, 223.4, 397.0)"> </text><text xml:space="preserve" font-family="AvenirNext-Medium" font-size="24.0" fill="#34A4DA" transform="matrix(1.00, 0.00, -0.00, -1.00, 229.4, 397.0)">i</text><text xml:space="preserve" font-family="AvenirNext-Medium" font-size="24.0" fill="#34A4DA" transform="matrix(1.00, 0.00, -0.00, -1.00, 235.6, 397.0)">s</text><text xml:space="preserve" font-family="AvenirNext-Medium" font-size="24.0" fill="#34A4DA" transform="matrix(1.00, 0.00, -0.00, -1.00, 246.2, 397.0)"> </text><text xml:space="preserve" font-family="AvenirNext-Medium" font-size="24.0" fill="#34A4DA" transform="matrix(1.00, 0.00, -0.00, -1.00, 251.7, 397.0)">Y</text><text xml:space="preserve" font-family="AvenirNext-Medium" font-size="24.0" fill="#34A4DA" transform="matrix(1.00, 0.00, -0.00, -1.00, 264.4, 397.0)">o</text><text xml:space="preserve" font-family="AvenirNext-Medium" font-size="24.0" fill="#34A4DA" transform="matrix(1.00, 0.00, -0.00, -1.00, 279.0, 397.0)">u</text><text xml:space="preserve" font-family="AvenirNext-Medium" font-size="24.0" fill="#34A4DA" transform="matrix(1.00, 0.00, -0.00, -1.00, 293.0, 397.0)">r</text><text xml:space="preserve" font-family="AvenirNext-Medium" font-size="24.0" fill="#34A4DA" transform="matrix(1.00, 0.00, -0.00, -1.00, 301.7, 397.0)"> </text><text xml:space="preserve" font-family="AvenirNext-Medium" font-size="24.0" fill="#34A4DA" transform="matrix(1.00, 0.00, -0.00, -1.00, 307.7, 397.0)">N</text><text xml:space="preserve" font-family="AvenirNext-Medium" font-size="24.0" fill="#34A4DA" transform="matrix(1.00, 0.00, -0.00, -1.00, 326.2, 397.0)">e</text><text xml:space="preserve" font-family="AvenirNext-Medium" font-size="24.0" fill="#34A4DA" transform="matrix(1.00, 0.00, -0.00, -1.00, 340.0, 397.0)">w</text><text xml:space="preserve" font-family="AvenirNext-Medium" font-size="24.0" fill="#34A4DA" transform="matrix(1.00, 0.00, -0.00, -1.00, 358.5, 397.0)"> </text><text xml:space="preserve" font-family="AvenirNext-Medium" font-size="24.0" fill="#34A4DA" transform="matrix(1.00, 0.00, -0.00, -1.00, 364.5, 397.0)">D</text><text xml:space="preserve" font-family="AvenirNext-Medium" font-size="24.0" fill="#34A4DA" transform="matrix(1.00, 0.00, -0.00, -1.00, 382.8, 397.0)">e</text><text xml:space="preserve" font-family="AvenirNext-Medium" font-size="24.0" fill="#34A4DA" transform="matrix(1.00, 0.00, -0.00, -1.00, 396.5, 397.0)">s</text><text xml:space="preserve" font-family="AvenirNext-Medium" font-size="24.0" fill="#34A4DA" transform="matrix(1.00, 0.00, -0.00, -1.00, 407.2, 397.0)">k</text><text xml:space="preserve" font-family="AvenirNext-Medium" font-size="24.0" fill="#34A4DA" transform="matrix(1.00, 0.00, -0.00, -1.00, 419.8, 397.0)">t</text><text xml:space="preserve" font-family="AvenirNext-Medium" font-size="24.0" fill="#34A4DA" transform="matrix(1.00, 0.00, -0.00, -1.00, 427.7, 397.0)">o</text><text xml:space="preserve" font-family="AvenirNext-Medium" font-size="24.0" fill="#34A4DA" transform="matrix(1.00, 0.00, -0.00, -1.00, 442.4, 397.0)">p</text><g><clipPath id="clip-26"><path d="M 108.0 393.8 L 457.6 393.8 L 457.6 397.0 L 108.0 397.0 Z M 108.0 393.8 "></path></clipPath><g clip-path="url(#clip-26)"><path d="M 4.0 30.0 L 352.6 30.0 " fill="none" stroke="#34A4DA" stroke-width="1.20" stroke-miterlimit="0.00" transform="matrix(1.00, 0.00, 0.00, -1.00, 105.0, 425.4)"></path></g></g></g></svg>